<svg xmlns="http://www.w3.org/2000/svg" width="52" height="59.256"><defs><style>.a{fill:#fff}</style></defs><path class="a" d="M23.59 4.417a.79.79 0 01-.79-.79V.79a.79.79 0 011.579 0v2.837a.79.79 0 01-.789.79zm0 0M19.441 4.417a.79.79 0 01-.79-.79V.79a.79.79 0 011.579 0v2.837a.79.79 0 01-.789.79zm0 0M17.836 34.751a1.537 1.537 0 101.537 1.537 1.537 1.537 0 00-1.537-1.537zm0 1.579a.043.043 0 11.043-.043.043.043 0 01-.043.043zm0 0M25.199 34.751a1.537 1.537 0 101.536 1.537 1.536 1.536 0 00-1.536-1.537zm0 1.579a.043.043 0 110-.085.043.043 0 010 .085zm0 0M34.097 36.288a1.537 1.537 0 10-1.537 1.537 1.536 1.536 0 001.537-1.537zm-1.579 0a.043.043 0 11.043.043.043.043 0 01-.043-.043zm0 0M10.475 34.751a1.537 1.537 0 101.537 1.537 1.536 1.536 0 00-1.537-1.537zm0 1.579a.043.043 0 11.043-.043.043.043 0 01-.043.043zm0 0"/><path class="a" d="M43.021 39.791v-16.96a3.338 3.338 0 00-3.333-3.331h-3.58V9.066A9.077 9.077 0 0027.042 0H15.979a9.077 9.077 0 00-9.066 9.066V19.5H3.334A3.338 3.338 0 000 22.831V49.5a3.338 3.338 0 003.335 3.335h29.753a9.747 9.747 0 109.928-13.048zM8.452 9.066a7.536 7.536 0 017.527-7.527h11.063a7.536 7.536 0 017.527 7.527V19.5h-1.227V9.066a6.308 6.308 0 00-6.3-6.3H15.979a6.308 6.308 0 00-6.3 6.3V19.5H8.452zM31.803 19.5H11.218V9.066A4.767 4.767 0 0115.979 4.3h11.063a4.767 4.767 0 014.761 4.762zM3.334 51.3a1.8 1.8 0 01-1.8-1.8V22.831a1.8 1.8 0 011.8-1.8h36.354a1.8 1.8 0 011.8 1.8v16.96A9.734 9.734 0 0032.674 51.3zm38.917 6.413A8.208 8.208 0 1150.46 49.5a8.208 8.208 0 01-8.208 8.213zm0 0"/><path class="a" d="M42.238 42.953a3.4 3.4 0 00-2.576.912 3.433 3.433 0 00-1.087 2.5.79.79 0 101.579 0 1.843 1.843 0 112.765 1.6 3.494 3.494 0 00-1.712 3.026v1.143a.79.79 0 101.579 0v-1.143a1.912 1.912 0 01.926-1.66 3.422 3.422 0 00-1.474-6.375zm0 0M41.997 53.099a1.228 1.228 0 101.229 1.228 1.229 1.229 0 00-1.229-1.228zm0 1.579a.351.351 0 11.351-.351.351.351 0 01-.351.351zm0 0"/></svg>