<svg id="good_vibes_text" data-name="good vibes text" xmlns="http://www.w3.org/2000/svg" width="145" height="17.188" viewBox="0 0 145 17.188">
  <path id="Path_3115" data-name="Path 3115" d="M9.124-15.722a8.564,8.564,0,0,1,5.355,1.584,6.286,6.286,0,0,1,2.447,4.3H11.394a2.033,2.033,0,0,0-.875-.768,3.152,3.152,0,0,0-1.371-.272,2.893,2.893,0,0,0-2.341.981A4.032,4.032,0,0,0,5.98-7.21,4.113,4.113,0,0,0,6.9-4.279a3.748,3.748,0,0,0,2.837.969A3.5,3.5,0,0,0,12.67-4.775H8.486V-8.487h8.535v5.249a10.08,10.08,0,0,1-3,3.2A8.277,8.277,0,0,1,9.171,1.3,9.139,9.139,0,0,1,4.644.225,7.309,7.309,0,0,1,1.688-2.789,9.289,9.289,0,0,1,.66-7.21a9.289,9.289,0,0,1,1.028-4.421,7.328,7.328,0,0,1,2.944-3.014A9.022,9.022,0,0,1,9.124-15.722Zm17.945-.118a8.7,8.7,0,0,1,4.327,1.1A8.167,8.167,0,0,1,34.5-11.679a8.6,8.6,0,0,1,1.147,4.421A8.6,8.6,0,0,1,34.5-2.837,8.23,8.23,0,0,1,31.384.237a8.647,8.647,0,0,1-4.315,1.111A8.693,8.693,0,0,1,22.73.237,8.317,8.317,0,0,1,19.6-2.837a8.531,8.531,0,0,1-1.158-4.421A8.531,8.531,0,0,1,19.6-11.679a8.229,8.229,0,0,1,3.133-3.062A8.767,8.767,0,0,1,27.069-15.84Zm0,4.847a3.014,3.014,0,0,0-2.435,1,4.089,4.089,0,0,0-.851,2.731,4.051,4.051,0,0,0,.851,2.707,3.014,3.014,0,0,0,2.435,1,2.986,2.986,0,0,0,2.412-1,4.051,4.051,0,0,0,.851-2.707,4.089,4.089,0,0,0-.851-2.731A2.986,2.986,0,0,0,27.069-10.993ZM45.7-15.84a8.7,8.7,0,0,1,4.327,1.1,8.167,8.167,0,0,1,3.109,3.062,8.6,8.6,0,0,1,1.147,4.421,8.6,8.6,0,0,1-1.147,4.421A8.23,8.23,0,0,1,50.014.237,8.647,8.647,0,0,1,45.7,1.348,8.693,8.693,0,0,1,41.361.237a8.317,8.317,0,0,1-3.133-3.074A8.531,8.531,0,0,1,37.07-7.258a8.531,8.531,0,0,1,1.158-4.421,8.229,8.229,0,0,1,3.133-3.062A8.767,8.767,0,0,1,45.7-15.84Zm0,4.847a3.014,3.014,0,0,0-2.435,1,4.089,4.089,0,0,0-.851,2.731,4.051,4.051,0,0,0,.851,2.707,3.014,3.014,0,0,0,2.435,1,2.986,2.986,0,0,0,2.412-1,4.051,4.051,0,0,0,.851-2.707,4.089,4.089,0,0,0-.851-2.731A2.986,2.986,0,0,0,45.7-10.993ZM71.848-7.234a8.709,8.709,0,0,1-1.064,4.3A7.658,7.658,0,0,1,67.746.083a9.3,9.3,0,0,1-4.6,1.1H56.173V-15.556h6.975a9.547,9.547,0,0,1,4.6,1.064,7.468,7.468,0,0,1,3.038,2.955A8.624,8.624,0,0,1,71.848-7.234ZM62.675-3.5a3.963,3.963,0,0,0,2.813-.969,3.6,3.6,0,0,0,1.04-2.766A3.6,3.6,0,0,0,65.488-10a3.963,3.963,0,0,0-2.813-.969H61.421V-3.5ZM82.156-15.556,85.608-4.042l3.428-11.514h5.58L88.989,1.183H82.2L76.576-15.556Zm18.89,0V1.183H95.8V-15.556ZM114.617-7.4a3.991,3.991,0,0,1,2.352,1.454,4.073,4.073,0,0,1,.839,2.542,4.141,4.141,0,0,1-1.454,3.393,6.422,6.422,0,0,1-4.173,1.194h-8.771V-15.556h8.535a6.51,6.51,0,0,1,4.019,1.111,3.815,3.815,0,0,1,1.466,3.239,3.948,3.948,0,0,1-.768,2.471A3.648,3.648,0,0,1,114.617-7.4Zm-5.958-1.631h2.033a1.629,1.629,0,0,0,1.052-.284,1.07,1.07,0,0,0,.343-.875,1.138,1.138,0,0,0-.343-.91,1.582,1.582,0,0,0-1.052-.3h-2.033Zm2.388,6.005A1.68,1.68,0,0,0,112.1-3.3a1.065,1.065,0,0,0,.343-.887q0-1.206-1.395-1.206h-2.388v2.364ZM124.831-11.4v2.081h5.2v3.948h-5.2V-3h5.911V1.183H119.582V-15.556h11.159V-11.4ZM145.66-3.759a4.707,4.707,0,0,1-.745,2.6A5.084,5.084,0,0,1,142.752.674a7.816,7.816,0,0,1-3.381.674,8.256,8.256,0,0,1-4.953-1.407A5.182,5.182,0,0,1,132.3-4.184h5.58q.118,1.442,1.277,1.442a.964.964,0,0,0,.65-.213.765.765,0,0,0,.248-.615,1.041,1.041,0,0,0-.6-.934A11.861,11.861,0,0,0,137.5-5.3a18.174,18.174,0,0,1-2.636-1.064,5.276,5.276,0,0,1-1.832-1.608,4.564,4.564,0,0,1-.78-2.766,4.574,4.574,0,0,1,.839-2.778,5.183,5.183,0,0,1,2.293-1.738,8.628,8.628,0,0,1,3.275-.591,7.518,7.518,0,0,1,4.776,1.395,5.261,5.261,0,0,1,1.939,4.019h-5.651q-.118-1.324-1.088-1.324a.76.76,0,0,0-.544.2.791.791,0,0,0-.213.6,1.011,1.011,0,0,0,.6.887,12.4,12.4,0,0,0,1.88.792,20.175,20.175,0,0,1,2.66,1.123,5.46,5.46,0,0,1,1.844,1.631A4.526,4.526,0,0,1,145.66-3.759Z" transform="translate(-0.66 15.84)" fill="#9797de"/>
</svg>
