<svg xmlns="http://www.w3.org/2000/svg" width="22.79" height="22.792" viewBox="0 0 22.79 22.792"><defs><style>.a{fill:#9797de;}</style></defs><path class="a" d="M22.177,9.914l0,0-9.3-9.3a2.1,2.1,0,0,0-2.967,0L.618,9.907l-.009.01a2.1,2.1,0,0,0,1.4,3.575q.032,0,.065,0H2.44v6.842A2.458,2.458,0,0,0,4.9,22.792H8.534a.668.668,0,0,0,.668-.668V16.76a1.122,1.122,0,0,1,1.12-1.12h2.145a1.122,1.122,0,0,1,1.12,1.12v5.364a.668.668,0,0,0,.668.668h3.637a2.458,2.458,0,0,0,2.456-2.456V13.495h.344a2.1,2.1,0,0,0,1.485-3.581Zm0,0" transform="translate(0.001)"/></svg>