<svg xmlns="http://www.w3.org/2000/svg" width="97.476" height="19.442" viewBox="0 0 97.476 19.442"><defs><style>.a,.b{fill:#fff;}.b{opacity:0.6;}</style></defs><g transform="translate(-16 -50)"><g transform="translate(16 50)"><path class="a" d="M6.35-15.761A5.757,5.757,0,0,1,9.95-14.7,4.226,4.226,0,0,1,11.595-11.8H7.876a1.367,1.367,0,0,0-.588-.517,2.119,2.119,0,0,0-.922-.183,1.945,1.945,0,0,0-1.573.66,2.711,2.711,0,0,0-.556,1.8,2.765,2.765,0,0,0,.62,1.971,2.52,2.52,0,0,0,1.907.652A2.355,2.355,0,0,0,8.734-8.4H5.921v-2.5h5.738v3.528A6.776,6.776,0,0,1,9.64-5.215a5.564,5.564,0,0,1-3.258.9A6.144,6.144,0,0,1,3.338-5.04,4.913,4.913,0,0,1,1.351-7.067,6.245,6.245,0,0,1,.66-10.039a6.245,6.245,0,0,1,.691-2.972A4.926,4.926,0,0,1,3.33-15.037,6.065,6.065,0,0,1,6.35-15.761Zm12.063-.079a5.849,5.849,0,0,1,2.909.739,5.49,5.49,0,0,1,2.09,2.058,5.781,5.781,0,0,1,.771,2.972A5.781,5.781,0,0,1,23.412-7.1a5.532,5.532,0,0,1-2.1,2.066,5.813,5.813,0,0,1-2.9.747A5.844,5.844,0,0,1,15.5-5.032,5.591,5.591,0,0,1,13.391-7.1a5.735,5.735,0,0,1-.779-2.972,5.735,5.735,0,0,1,.779-2.972A5.532,5.532,0,0,1,15.5-15.1,5.893,5.893,0,0,1,18.413-15.84Zm0,3.258a2.026,2.026,0,0,0-1.637.675,2.749,2.749,0,0,0-.572,1.836,2.724,2.724,0,0,0,.572,1.82,2.026,2.026,0,0,0,1.637.675,2.008,2.008,0,0,0,1.621-.675,2.724,2.724,0,0,0,.572-1.82,2.749,2.749,0,0,0-.572-1.836A2.008,2.008,0,0,0,18.413-12.582ZM30.938-15.84a5.849,5.849,0,0,1,2.909.739,5.49,5.49,0,0,1,2.09,2.058,5.781,5.781,0,0,1,.771,2.972A5.781,5.781,0,0,1,35.936-7.1a5.532,5.532,0,0,1-2.1,2.066,5.813,5.813,0,0,1-2.9.747,5.844,5.844,0,0,1-2.916-.747A5.591,5.591,0,0,1,25.915-7.1a5.735,5.735,0,0,1-.779-2.972,5.735,5.735,0,0,1,.779-2.972A5.532,5.532,0,0,1,28.021-15.1,5.893,5.893,0,0,1,30.938-15.84Zm0,3.258a2.026,2.026,0,0,0-1.637.675,2.749,2.749,0,0,0-.572,1.836,2.724,2.724,0,0,0,.572,1.82,2.026,2.026,0,0,0,1.637.675,2.008,2.008,0,0,0,1.621-.675,2.724,2.724,0,0,0,.572-1.82,2.749,2.749,0,0,0-.572-1.836A2.008,2.008,0,0,0,30.938-12.582Zm17.578,2.527A5.854,5.854,0,0,1,47.8-7.162a5.148,5.148,0,0,1-2.042,2.026,6.25,6.25,0,0,1-3.091.739H37.978V-15.649h4.689a6.418,6.418,0,0,1,3.091.715A5.02,5.02,0,0,1,47.8-12.947,5.8,5.8,0,0,1,48.516-10.055ZM42.349-7.543A2.664,2.664,0,0,0,44.241-8.2a2.417,2.417,0,0,0,.7-1.86,2.417,2.417,0,0,0-.7-1.86,2.664,2.664,0,0,0-1.891-.652h-.842v5.022Zm13.1-8.106,2.32,7.74,2.3-7.74h3.751L60.039-4.4H55.477L51.695-15.649Zm12.7,0V-4.4H64.616V-15.649Zm9.123,5.483a2.683,2.683,0,0,1,1.581.977,2.738,2.738,0,0,1,.564,1.709A2.784,2.784,0,0,1,78.436-5.2a4.317,4.317,0,0,1-2.805.8h-5.9V-15.649h5.738a4.376,4.376,0,0,1,2.7.747,2.564,2.564,0,0,1,.985,2.177,2.654,2.654,0,0,1-.517,1.661A2.452,2.452,0,0,1,77.268-10.166Zm-4.005-1.1h1.367a1.1,1.1,0,0,0,.707-.191.72.72,0,0,0,.23-.588.765.765,0,0,0-.23-.612,1.063,1.063,0,0,0-.707-.2H73.263Zm1.605,4.037a1.13,1.13,0,0,0,.707-.183.716.716,0,0,0,.23-.6q0-.811-.938-.811H73.263v1.589Zm9.266-5.626v1.4h3.5V-8.8h-3.5V-7.21h3.973V-4.4h-7.5V-15.649h7.5v2.8Zm14,5.134a3.164,3.164,0,0,1-.5,1.748,3.418,3.418,0,0,1-1.454,1.232,5.254,5.254,0,0,1-2.273.453,5.55,5.55,0,0,1-3.33-.946A3.483,3.483,0,0,1,89.156-8h3.751q.079.97.858.97a.648.648,0,0,0,.437-.143.514.514,0,0,0,.167-.413.7.7,0,0,0-.405-.628,7.973,7.973,0,0,0-1.311-.532,12.217,12.217,0,0,1-1.772-.715,3.547,3.547,0,0,1-1.232-1.081,3.068,3.068,0,0,1-.525-1.86,3.075,3.075,0,0,1,.564-1.868,3.484,3.484,0,0,1,1.542-1.168,5.8,5.8,0,0,1,2.2-.4,5.054,5.054,0,0,1,3.211.938,3.537,3.537,0,0,1,1.3,2.7h-3.8q-.079-.89-.731-.89a.511.511,0,0,0-.366.135.532.532,0,0,0-.143.405.68.68,0,0,0,.405.6,8.336,8.336,0,0,0,1.264.532,13.562,13.562,0,0,1,1.788.755,3.67,3.67,0,0,1,1.24,1.1A3.043,3.043,0,0,1,98.136-7.718Z" transform="translate(-0.66 15.84)"/><path class="b" d="M2.69-6.435a2.262,2.262,0,0,1,1.154.3,2.137,2.137,0,0,1,.813.836,2.469,2.469,0,0,1,.3,1.213,2.469,2.469,0,0,1-.3,1.213,2.161,2.161,0,0,1-.813.839,2.243,2.243,0,0,1-1.154.3,2.256,2.256,0,0,1-1.161-.3,2.184,2.184,0,0,1-.816-.839,2.447,2.447,0,0,1-.3-1.213A2.447,2.447,0,0,1,.713-5.3a2.16,2.16,0,0,1,.816-.836A2.275,2.275,0,0,1,2.69-6.435Zm0,.689a1.529,1.529,0,0,0-.787.2,1.374,1.374,0,0,0-.536.579,1.911,1.911,0,0,0-.192.878,1.911,1.911,0,0,0,.192.878,1.374,1.374,0,0,0,.536.579,1.529,1.529,0,0,0,.787.2,1.5,1.5,0,0,0,.777-.2A1.38,1.38,0,0,0,4-3.21a1.911,1.911,0,0,0,.192-.878A1.911,1.911,0,0,0,4-4.966a1.38,1.38,0,0,0-.533-.579A1.5,1.5,0,0,0,2.69-5.746ZM9.2-6.376v.6H7.235v1.424H8.86v.572H7.235v2H6.493v-4.59Zm4.168,0v.6H11.4v1.424h1.625v.572H11.4v2h-.741v-4.59Zm2.2,0v4.59h-.741v-4.59Zm3.739-.046a2.239,2.239,0,0,1,1.4.429,2.1,2.1,0,0,1,.754,1.164h-.787a1.4,1.4,0,0,0-.517-.66,1.494,1.494,0,0,0-.868-.244,1.349,1.349,0,0,0-.731.2,1.386,1.386,0,0,0-.507.575,1.947,1.947,0,0,0-.185.875,1.931,1.931,0,0,0,.185.868,1.386,1.386,0,0,0,.507.575,1.349,1.349,0,0,0,.731.2,1.494,1.494,0,0,0,.868-.244,1.4,1.4,0,0,0,.517-.653h.787a2.081,2.081,0,0,1-.754,1.161,2.251,2.251,0,0,1-1.4.426,2.219,2.219,0,0,1-1.151-.3,2,2,0,0,1-.774-.826,2.61,2.61,0,0,1-.273-1.213,2.61,2.61,0,0,1,.273-1.213,2.026,2.026,0,0,1,.774-.829A2.2,2.2,0,0,1,19.309-6.422Zm4.434.046v4.59H23v-4.59Zm4.428,3.6H26.233l-.351.995h-.793L26.78-6.3h.852l1.684,4.519h-.793Zm-.208-.572L27.2-5.5l-.761,2.146Zm3.44.988h1.586v.579H30.661v-4.59H31.4Z" transform="translate(-0.414 21.176)"/></g></g></svg>