<svg xmlns="http://www.w3.org/2000/svg" width="21.36" height="23.747" viewBox="0 0 21.36 23.747"><defs><style>.a{fill:none;stroke:rgba(50,56,106,0.3);}</style></defs><g transform="translate(0.5 0.5)"><path class="a" d="M33.919,33.122a1.625,1.625,0,0,1-1.568-1.194L27.476,14.055a1.626,1.626,0,0,1,3.136-.861l4.874,17.872a1.59,1.59,0,0,1-1.568,2.055Z" transform="translate(-15.234 -10.375)"/><path class="a" d="M23.045,32.747a1.625,1.625,0,0,1-1.625-1.625v-19.5a1.625,1.625,0,1,1,3.25,0v19.5A1.625,1.625,0,0,1,23.045,32.747Z" transform="translate(-14.109 -10)"/><path class="a" d="M14.045,32.747a1.625,1.625,0,0,1-1.625-1.625v-19.5a1.625,1.625,0,1,1,3.25,0v19.5A1.625,1.625,0,0,1,14.045,32.747Z" transform="translate(-12.42 -10)"/></g></svg>