<svg xmlns="http://www.w3.org/2000/svg" data-name="Layer 5" viewBox="0 0 128 160" x="0px" y="0px"><title>mental health, disorder, mental illness, phobia, fear, Psychiatric, anxiety</title><path d="M94.56,126.2h-35.2A3.408,3.408,0,0,1,56,123.38c-1.243-7.109-2.784-12.239-4.021-13.389-2.087-1.942-6.991-1.426-10.929-1.01-1.327.141-2.582.273-3.7.318-9.668.491-10.233-5.734-10.786-11.76A36.536,36.536,0,0,0,25.466,90.6a8.368,8.368,0,0,0-4.126-5.165c-1.613-1.063-3.442-2.268-3.282-5.319.077-1.476,1.239-2.763,2.712-4.392,2.269-2.512,5.376-5.951,5.389-11.391.006-1.41-.14-3.294-.282-5.115-.114-1.47-.222-2.859-.259-4.052-.028-.909-.016-1.83.033-2.738a1.25,1.25,0,0,1,2.5.137c-.045.838-.056,1.687-.031,2.523.036,1.135.142,2.5.254,3.936.145,1.872.295,3.807.289,5.317-.014,6.4-3.638,10.406-6.035,13.058-1,1.11-2.039,2.258-2.07,2.848-.081,1.558.564,2.047,2.162,3.1a10.848,10.848,0,0,1,5.148,6.55,38.893,38.893,0,0,1,1.184,7.414c.565,6.153.9,9.865,8.182,9.491,1.055-.042,2.271-.17,3.557-.306,4.676-.493,9.974-1.05,12.894,1.665,2.166,2.014,3.8,9.154,4.781,14.789a.911.911,0,0,0,.9.752h35.2a.914.914,0,0,0,.737-.368.889.889,0,0,0,.144-.8c-1.185-4.08-3.234-11.884-3.641-18.308-.252-3.967.9-9.812,3.6-13.31,10.067-13.06,13.422-23.35,11.581-35.517-.139-.919-.293-1.787-.473-2.653a1.25,1.25,0,1,1,2.447-.508c.19.911.353,1.822.5,2.787,1.929,12.746-1.681,23.936-12.072,37.418-2.294,2.975-3.3,8.211-3.085,11.625.393,6.185,2.392,13.787,3.548,17.768A3.412,3.412,0,0,1,94.56,126.2Z"/><path d="M34.317,92.626H26.961a1.25,1.25,0,0,1,0-2.5h7.356a1.25,1.25,0,1,1,0,2.5Z"/><circle cx="33.397" cy="66.247" r="2.15"/><path d="M69.473,54.488a14.48,14.48,0,0,1-10.5-4.215,14.254,14.254,0,0,1,.024-19.979,11.579,11.579,0,0,1,16.356,0,9.513,9.513,0,0,1,0,13.438,7.859,7.859,0,0,1-11.1,0,6.537,6.537,0,0,1,0-9.236,5.481,5.481,0,0,1,7.743,0,4.635,4.635,0,0,1,0,6.547,1.249,1.249,0,1,1-1.767-1.767,2.133,2.133,0,0,0,0-3.012,2.978,2.978,0,0,0-4.208,0,4.035,4.035,0,0,0,0,5.7,5.358,5.358,0,0,0,7.568,0,7.009,7.009,0,0,0,0-9.9,9.076,9.076,0,0,0-12.82,0,11.766,11.766,0,0,0,.024,16.492C64.4,52.378,71.084,53.138,76,50.286a1.25,1.25,0,0,1,1.256,2.162A15.537,15.537,0,0,1,69.473,54.488Z"/><path d="M80.008,49.535a1.25,1.25,0,0,1-.912-2.1,8.711,8.711,0,0,0,1.328-1.783,1.25,1.25,0,1,1,2.17,1.24,11.268,11.268,0,0,1-1.674,2.252A1.246,1.246,0,0,1,80.008,49.535Z"/><path d="M98.705,50.858A8.6,8.6,0,0,1,93.5,49.1a7.186,7.186,0,0,1-1.4-10.065,6,6,0,0,1,8.4-1.167,5.048,5.048,0,0,1,.983,7.071,4.29,4.29,0,0,1-6.007.835,1.25,1.25,0,1,1,1.507-1.994,1.791,1.791,0,0,0,2.506-.348,2.546,2.546,0,0,0-.5-3.57,3.5,3.5,0,0,0-4.9.681A4.684,4.684,0,0,0,95,47.109a6.17,6.17,0,0,0,8.641-1.2,8.115,8.115,0,0,0-1.59-11.26,8.387,8.387,0,0,0-7.36-1.291,7.772,7.772,0,0,0-5.363,4.371,1.25,1.25,0,1,1-2.32-.93,10.129,10.129,0,0,1,7.047-5.858,10.882,10.882,0,0,1,9.558,1.756,10.6,10.6,0,0,1,2.022,14.72,8.612,8.612,0,0,1-5.722,3.358A8.7,8.7,0,0,1,98.705,50.858Z"/><path d="M87.822,29.229a5.891,5.891,0,0,1-5.752-4.7,4.964,4.964,0,0,1,3.857-5.855,4.218,4.218,0,0,1,4.98,3.28,3.622,3.622,0,0,1-2.818,4.278,1.25,1.25,0,1,1-.5-2.448,1.123,1.123,0,0,0,.873-1.326,1.717,1.717,0,0,0-2.027-1.335,2.459,2.459,0,0,0-1.911,2.9,3.384,3.384,0,0,0,4,2.634,4.55,4.55,0,0,0,3.535-5.367,6.062,6.062,0,0,0-7.112-4.655,6.27,6.27,0,0,0-4.352,3.507,5.792,5.792,0,0,0-.2,5.153,1.251,1.251,0,0,1-2.231,1.131,8.186,8.186,0,0,1,.193-7.4,8.774,8.774,0,0,1,6.154-4.852,8.55,8.55,0,0,1,10,6.613,7.053,7.053,0,0,1-5.48,8.319A5.88,5.88,0,0,1,87.822,29.229Z"/><path d="M84.534,43.784A1.25,1.25,0,0,1,83.526,41.8c.88-1.2,1.172-1.546,1.222-1.6a1.25,1.25,0,0,1,1.881,1.648c-.006.006-.266.312-1.085,1.431A1.248,1.248,0,0,1,84.534,43.784Z"/><path d="M55.083,50.075a1.244,1.244,0,0,1-.652-.185,11.24,11.24,0,0,1-2.21-1.729,1.25,1.25,0,1,1,1.765-1.77,8.731,8.731,0,0,0,1.751,1.368,1.25,1.25,0,0,1-.654,2.316Z"/><path d="M35.3,51.858a8.7,8.7,0,0,1-1.212-.084,8.612,8.612,0,0,1-5.722-3.358A10.6,10.6,0,0,1,30.383,33.7a10.89,10.89,0,0,1,9.558-1.756A10.129,10.129,0,0,1,46.988,37.8a1.25,1.25,0,1,1-2.32.93,7.772,7.772,0,0,0-5.363-4.371,8.382,8.382,0,0,0-7.36,1.291,8.117,8.117,0,0,0-1.59,11.261A6.171,6.171,0,0,0,39,48.109a4.684,4.684,0,0,0,.913-6.562,3.5,3.5,0,0,0-4.9-.681,2.545,2.545,0,0,0-.5,3.569,1.79,1.79,0,0,0,2.506.349,1.25,1.25,0,1,1,1.507,1.994,4.289,4.289,0,0,1-6.007-.836,5.048,5.048,0,0,1,.983-7.071,6,6,0,0,1,8.4,1.168A7.186,7.186,0,0,1,40.5,50.1,8.606,8.606,0,0,1,35.3,51.858Z"/><path d="M49.9,45.255a1.245,1.245,0,0,1-.855-.338,8.622,8.622,0,0,1-1.622-2.037,1.25,1.25,0,1,1,2.2-1.18,6.386,6.386,0,0,0,1.128,1.392,1.25,1.25,0,0,1-.854,2.163Z"/><path d="M80.491,33.684a1.138,1.138,0,0,1-.154-.01,1.249,1.249,0,0,1-1.088-1.393h0a8.977,8.977,0,0,0-.195-2.04,1.25,1.25,0,1,1,2.459-.446,9.977,9.977,0,0,1,.216,2.791A1.249,1.249,0,0,1,80.491,33.684Z"/><path d="M46.178,30.229a5.887,5.887,0,0,1-1.2-.123,7.053,7.053,0,0,1-5.48-8.319,8.553,8.553,0,0,1,10-6.613,8.774,8.774,0,0,1,6.154,4.852,8.186,8.186,0,0,1,.193,7.4A1.251,1.251,0,0,1,53.611,26.3a5.792,5.792,0,0,0-.2-5.153,6.27,6.27,0,0,0-4.352-3.507,6.062,6.062,0,0,0-7.112,4.655,4.55,4.55,0,0,0,3.535,5.367,3.384,3.384,0,0,0,4-2.634,2.461,2.461,0,0,0-1.911-2.9,1.721,1.721,0,0,0-2.027,1.336,1.123,1.123,0,0,0,.873,1.326,1.25,1.25,0,1,1-.5,2.448,3.622,3.622,0,0,1-2.818-4.279,4.226,4.226,0,0,1,4.98-3.28,4.966,4.966,0,0,1,3.857,5.856,5.891,5.891,0,0,1-5.752,4.7Z"/><path d="M52.867,34.034a1.246,1.246,0,0,1-1.25-1.233,10.59,10.59,0,0,1,.526-2.889,1.249,1.249,0,1,1,2.394.716,8.787,8.787,0,0,0-.42,2.16,1.255,1.255,0,0,1-1.249,1.246Z"/><path d="M64.855,20.964a1.249,1.249,0,0,1-1.126-.708,9.007,9.007,0,0,0-2.55-3.086,9.258,9.258,0,0,1-3.436-7.042,7.888,7.888,0,0,1,2.765-6.27,8.551,8.551,0,0,1,11.966.689,7.042,7.042,0,0,1-.553,9.946,5.885,5.885,0,0,1-8.31-.462,4.956,4.956,0,0,1,.39-7,4.214,4.214,0,0,1,5.953.331,3.629,3.629,0,0,1-.284,5.117A1.251,1.251,0,0,1,68,10.614a1.123,1.123,0,0,0,.089-1.586,1.714,1.714,0,0,0-2.423-.135,2.457,2.457,0,0,0-.193,3.471,3.385,3.385,0,0,0,4.78.266,4.542,4.542,0,0,0,.355-6.416,6.063,6.063,0,0,0-8.487-.448,5.431,5.431,0,0,0-1.88,4.325,6.729,6.729,0,0,0,2.494,5.124,11.492,11.492,0,0,1,3.243,3.956,1.248,1.248,0,0,1-.584,1.668A1.23,1.23,0,0,1,64.855,20.964Z"/><path d="M66.9,25.931a1.25,1.25,0,0,1-1.219-.98,10.074,10.074,0,0,0-.531-1.5,1.25,1.25,0,0,1,2.3-.984,12.116,12.116,0,0,1,.673,1.946,1.25,1.25,0,0,1-.95,1.49A1.28,1.28,0,0,1,66.9,25.931Z"/><path d="M53.217,40.262a1.248,1.248,0,0,1-1.117-.689,8.049,8.049,0,0,1-.83-3.14,1.25,1.25,0,0,1,1.242-1.258h.008a1.251,1.251,0,0,1,1.25,1.242,5.606,5.606,0,0,0,.562,2.032,1.252,1.252,0,0,1-1.115,1.813Z"/><path d="M79.569,39.869A1.251,1.251,0,0,1,78.432,38.1a6.531,6.531,0,0,0,.482-1.96,1.235,1.235,0,0,1,1.327-1.167A1.249,1.249,0,0,1,81.408,36.3a8.9,8.9,0,0,1-.7,2.83A1.25,1.25,0,0,1,79.569,39.869Z"/><text x="0" y="143" fill="#000000" font-size="5px" font-weight="bold" font-family="'Helvetica Neue', Helvetica, Arial-Unicode, Arial, Sans-serif">Created by Victoruler</text><text x="0" y="148" fill="#000000" font-size="5px" font-weight="bold" font-family="'Helvetica Neue', Helvetica, Arial-Unicode, Arial, Sans-serif">from the Noun Project</text></svg>