<svg xmlns="http://www.w3.org/2000/svg" width="59.256" height="59.256" viewBox="0 0 59.256 59.256"><defs><style>.a{fill:#fff;}</style></defs><path class="a" d="M32,384H57.677v1.975H32Zm0,0" transform="translate(-28.05 -336.595)"/><path class="a" d="M114.963,413.926a2.963,2.963,0,1,1,2.963-2.963A2.963,2.963,0,0,1,114.963,413.926Zm0-3.95a.988.988,0,1,0,.988.988A.988.988,0,0,0,114.963,409.975Zm0,0" transform="translate(-98.174 -357.633)"/><path class="a" d="M31.6,54.318A2.963,2.963,0,0,1,28.64,57.28H4.938a2.963,2.963,0,0,1-2.963-2.963V4.938A2.963,2.963,0,0,1,4.938,1.975H6.913v.988A2.963,2.963,0,0,0,9.876,5.926H23.7a2.963,2.963,0,0,0,2.963-2.963V1.975H28.64A2.963,2.963,0,0,1,31.6,4.938v6.913h1.975V4.938A4.944,4.944,0,0,0,28.64,0H4.938A4.944,4.944,0,0,0,0,4.938v49.38a4.944,4.944,0,0,0,4.938,4.938h23.7a4.944,4.944,0,0,0,4.938-4.938V31.6H31.6ZM8.888,1.975h15.8v.988a.988.988,0,0,1-.988.988H9.876a.988.988,0,0,1-.988-.988Zm0,0"/><path class="a" d="M112,112v15.8h45.429V112Zm43.454,13.826H113.975V113.975h41.479Zm0,0" transform="translate(-98.174 -98.174)"/><path class="a" d="M145.277,150.781l1.939-1.12v2.24h1.975v-2.24l1.939,1.12.988-1.711-1.939-1.12,1.939-1.12-.988-1.711-1.939,1.12V144h-1.975v2.24l-1.939-1.12-.988,1.711,1.939,1.12-1.939,1.12Zm0,0" transform="translate(-126.477 -126.223)"/><path class="a" d="M225.277,150.781l1.94-1.12v2.24h1.975v-2.24l1.939,1.12.988-1.711-1.94-1.12,1.94-1.12-.988-1.711-1.939,1.12V144h-1.975v2.24l-1.94-1.12-.988,1.711,1.939,1.12-1.939,1.12Zm0,0" transform="translate(-196.601 -126.223)"/><path class="a" d="M305.277,150.781l1.94-1.12v2.24h1.975v-2.24l1.94,1.12.988-1.711-1.94-1.12,1.94-1.12-.988-1.711-1.94,1.12V144h-1.975v2.24l-1.94-1.12-.988,1.711,1.939,1.12-1.939,1.12Zm0,0" transform="translate(-266.725 -126.223)"/><path class="a" d="M385.277,150.781l1.94-1.12v2.24h1.975v-2.24l1.94,1.12.988-1.711-1.94-1.12,1.94-1.12-.988-1.711-1.94,1.12V144h-1.975v2.24l-1.94-1.12-.988,1.711,1.94,1.12-1.94,1.12Zm0,0" transform="translate(-336.849 -126.223)"/></svg>