<svg xmlns="http://www.w3.org/2000/svg" width="18.178" height="18.178" viewBox="0 0 18.178 18.178"><defs><style>.a{fill:#334e44;}</style></defs><path class="a" d="M17.679,5.048,16.042,6.685a.426.426,0,0,1-.6,0L11.5,2.744a.426.426,0,0,1,0-.6L13.134.5a1.708,1.708,0,0,1,2.411,0l2.134,2.134A1.7,1.7,0,0,1,17.679,5.048Zm-7.588-1.5L.768,12.87.015,17.184A.853.853,0,0,0,1,18.171l4.314-.756L14.64,8.091a.426.426,0,0,0,0-.6L10.7,3.546a.431.431,0,0,0-.607,0ZM4.407,12.071a.5.5,0,0,1,0-.7L9.875,5.9a.5.5,0,1,1,.7.7L5.11,12.071A.5.5,0,0,1,4.407,12.071ZM3.125,15.057h1.7v1.289l-2.29.4-1.1-1.1.4-2.29H3.125Z" transform="translate(-0.002 -0.005)"/></svg>