<svg xmlns="http://www.w3.org/2000/svg" width="52" height="59.256" viewBox="0 0 52 59.256"><defs><style>.a{fill:#fff;}</style></defs><g transform="translate(-0.012)"><path class="a" d="M178.7,4.417a.79.79,0,0,1-.79-.79V.79a.79.79,0,0,1,1.579,0V3.627A.79.79,0,0,1,178.7,4.417Zm0,0" transform="translate(-155.098)"/><path class="a" d="M146.352,4.417a.79.79,0,0,1-.79-.79V.79a.79.79,0,0,1,1.579,0V3.627A.79.79,0,0,1,146.352,4.417Zm0,0" transform="translate(-126.899)"/><path class="a" d="M128.849,271.336a1.537,1.537,0,1,0,1.537,1.537A1.537,1.537,0,0,0,128.849,271.336Zm0,1.579a.043.043,0,1,1,.043-.043A.043.043,0,0,1,128.849,272.915Zm0,0" transform="translate(-111.001 -236.585)"/><path class="a" d="M186.345,271.336a1.537,1.537,0,1,0,1.536,1.537A1.536,1.536,0,0,0,186.345,271.336Zm0,1.579a.043.043,0,1,1,0-.085.043.043,0,0,1,0,.085Zm0,0" transform="translate(-161.134 -236.585)"/><path class="a" d="M245.374,272.873a1.537,1.537,0,1,0-1.537,1.537A1.536,1.536,0,0,0,245.374,272.873Zm-1.579,0a.043.043,0,1,1,.043.043A.043.043,0,0,1,243.795,272.873Zm0,0" transform="translate(-211.265 -236.585)"/><path class="a" d="M71.357,271.336a1.537,1.537,0,1,0,1.537,1.537A1.536,1.536,0,0,0,71.357,271.336Zm0,1.579a.043.043,0,1,1,.043-.043A.043.043,0,0,1,71.357,272.915Zm0,0" transform="translate(-60.87 -236.585)"/><path class="a" d="M43.033,39.791V22.831A3.338,3.338,0,0,0,39.7,19.5H36.12V9.066A9.077,9.077,0,0,0,27.054,0H15.991A9.077,9.077,0,0,0,6.925,9.066V19.5H3.346A3.338,3.338,0,0,0,.012,22.831V49.5a3.338,3.338,0,0,0,3.335,3.335H33.1a9.747,9.747,0,1,0,9.928-13.048ZM8.464,9.066a7.536,7.536,0,0,1,7.527-7.527H27.054a7.536,7.536,0,0,1,7.527,7.527V19.5H33.354V9.066a6.308,6.308,0,0,0-6.3-6.3H15.991a6.308,6.308,0,0,0-6.3,6.3V19.5H8.464ZM31.815,19.5H11.23V9.066A4.767,4.767,0,0,1,15.991,4.3H27.054a4.767,4.767,0,0,1,4.761,4.762ZM3.346,51.3a1.8,1.8,0,0,1-1.8-1.8V22.831a1.8,1.8,0,0,1,1.8-1.8H39.7a1.8,1.8,0,0,1,1.8,1.8v16.96A9.734,9.734,0,0,0,32.686,51.3Zm38.917,6.413A8.208,8.208,0,1,1,50.472,49.5,8.208,8.208,0,0,1,42.264,57.713Zm0,0"/><path class="a" d="M6.56,5.575h5.15V7.12l2.06-2.06L11.71,3V4.545H5.53v3.09H6.56Zm5.15,5.15H6.56V9.18L4.5,11.24,6.56,13.3V11.755h6.18V8.665H11.71Z" transform="translate(33.377 41.85)"/></g></svg>