<svg xmlns="http://www.w3.org/2000/svg" xmlns:xlink="http://www.w3.org/1999/xlink" width="23.283" height="20.372" viewBox="0 0 23.283 20.372"><defs><style>.a{fill:url(#a);}</style><linearGradient id="a" x1="0.5" x2="0.5" y2="1" gradientUnits="objectBoundingBox"><stop offset="0" stop-color="#32386a" stop-opacity="0.8"/><stop offset="1" stop-color="#9797de"/></linearGradient></defs><g transform="translate(0)"><g transform="translate(0 2.909)"><path class="a" d="M23.021,108.526l-4.366-3.638a.727.727,0,0,0-1.193.559v2.183H16.244a2.9,2.9,0,0,1-2.468-1.368L9.064,98.724a5.786,5.786,0,0,0-4.936-2.736H0V98.9H4.128A2.9,2.9,0,0,1,6.6,100.266l4.712,7.538a5.789,5.789,0,0,0,4.936,2.736h1.218v2.183a.728.728,0,0,0,.419.659.738.738,0,0,0,.309.068.719.719,0,0,0,.466-.169l4.366-3.638a.727.727,0,0,0,0-1.118Z" transform="translate(0 -95.988)"/></g><g transform="translate(11.045 0)"><path class="a" d="M254.856,35.818l-4.366-3.638a.728.728,0,0,0-1.193.559v2.183h-1.218a5.786,5.786,0,0,0-4.936,2.736l-.263.422,1.716,2.746,1.016-1.625a2.9,2.9,0,0,1,2.468-1.368H249.3v2.183a.727.727,0,0,0,.419.659.738.738,0,0,0,.309.068.727.727,0,0,0,.466-.169l4.366-3.638a.727.727,0,0,0,0-1.118Z" transform="translate(-242.88 -32.012)"/></g><g transform="translate(0 11.558)"><path class="a" d="M7.612,286.164,6.6,287.789a2.9,2.9,0,0,1-2.469,1.368H0v2.91H4.128a5.789,5.789,0,0,0,4.936-2.736l.263-.422Z" transform="translate(0 -286.164)"/></g></g></svg>