<svg xmlns="http://www.w3.org/2000/svg" xmlns:xlink="http://www.w3.org/1999/xlink" width="465" height="429" viewBox="0 0 465 429"><defs><style>.a{fill:#fb6d3a;}.b{clip-path:url(#c);}.c{fill:none;}.d{fill:#246049;}.e{fill:#9a3e1d;}.f{fill:#ffa889;}.g{fill:#69b29c;}.h{filter:url(#a);}</style><filter id="a" x="0" y="0" width="465" height="429" filterUnits="userSpaceOnUse"><feOffset dy="5" input="SourceAlpha"/><feGaussianBlur stdDeviation="15" result="b"/><feFlood flood-color="#fb6d3a" flood-opacity="0.078"/><feComposite operator="in" in2="b"/><feComposite in="SourceGraphic"/></filter><clipPath id="c"><rect class="a" width="375" height="308" rx="8"/></clipPath></defs><g transform="translate(45 40)"><g class="h" transform="matrix(1, 0, 0, 1, -45, -40)"><rect class="a" width="375" height="339" transform="translate(45 40)"/></g><g class="b"><g transform="translate(187.5 -4)"><path class="c" d="M907.256,437.2l-.142.245c.054-.126.112-.249.168-.374.111-.561.227-1.121.334-1.682q-.135-2.234-.449-4.329c-3.193-14.195-16.9-23.666-27.852-33.191,2.328,4.725,4.665,9.445,7.282,14.027,8.262,14.1,16.016,29.687,15.47,45.854q2.124-6.766,3.723-13.679C906.318,441.789,906.8,439.5,907.256,437.2Z" transform="translate(-849.14 -244.345)"/><path class="c" d="M943.5,500.868c4.972-8.752,9.872-18.15,16.468-25.368a76.674,76.674,0,0,1-11.667,4.54c-.806,4.469-1.73,8.916-2.825,13.327C944.861,495.852,944.208,498.36,943.5,500.868Z" transform="translate(-887.505 -291.225)"/><path class="d" d="M948.66,487.67l.381-.848c.123-.274.243-.548.369-.82l-.315-.93a28.078,28.078,0,0,0-.55-3.414q.313,2.095.448,4.329C948.886,486.549,948.77,487.109,948.66,487.67Z" transform="translate(-890.519 -294.944)"/><path class="d" d="M962.5,413.281c.292.252.584.5.878.74.054-.56.1-1.122.158-1.682C963.179,412.647,962.831,412.96,962.5,413.281Z" transform="translate(-898.858 -253.083)"/><path class="e" d="M924.84,559.47h-.6c-.041-.2-.088-.4-.14-.593h-.2c-1.748,5.051-3.855,9.947-5.8,14.927-.249.638.779,1.038,1.1.458a92.528,92.528,0,0,0,6.77-15.647c-.352.085-.705.168-1.06.245C924.886,559.063,924.867,559.266,924.84,559.47Z" transform="translate(-872.298 -341.416)"/><path class="e" d="M940.793,500.288c1.1-4.411,2.019-8.858,2.825-13.327-.138.041-.273.085-.412.126l-.668,1.151q.062,1.775.064,3.6l-.794-2.345-.458.789-.417.718c-.457,2.3-.938,4.589-1.466,6.872q-1.6,6.905-3.723,13.679-.027.816-.082,1.633c1.065-1.751,2.111-3.561,3.153-5.4C939.523,505.281,940.176,502.773,940.793,500.288Z" transform="translate(-882.82 -298.146)"/><path class="e" d="M954.762,420.832c-.7,6.618-1.575,13.222-2.682,19.787q.159,1.878.242,3.811c.486-.987,1-1.957,1.523-2.919.945-5.537,1.711-11.1,2.363-16.681q.513-4.4.936-8.806l-1.851-.456Q955.039,418.2,954.762,420.832Z" transform="translate(-892.632 -255.034)"/><path class="e" d="M962.338,269.624c.923-10.057,1.585-20.138,2.292-30.215-.217.128-.431.257-.647.383l.6-.594c.029-.195.065-.387.1-.58.578-8.209,1.194-16.415,2.016-24.6.466-4.637,1.006-9.273,1.647-13.9q-.375.228-.746.459.437-.888.925-1.743c1.01-7.063,2.267-14.088,3.883-21.026-.361.041-.723.078-1.085.116a247.821,247.821,0,0,0-4.9,25.643c.039,1.572.033,3.15-.029,4.734v-4.525c-1.478,10.511-2.449,21.132-3.283,31.766.119,1.251.209,2.472.266,3.655l-.51-.5c-.82,10.757-1.539,21.518-2.541,32.183.268.244.537.485.807.719Z" transform="translate(-897.561 -111.456)"/><path class="e" d="M989.243,128.833c1.1-4.587,2.36-9.134,3.813-13.625-.148.085-.29.176-.44.259q-.326.9-.652,1.811l.6-1.783.048-.029c2.11-5.818,4.244-11.217,6.622-16.3.084-.2-.213-.377-.311-.172a163.726,163.726,0,0,0-10.584,29.329c0,.081,0,.165,0,.246l-.042-.084c-.115.441-.227.883-.339,1.325l.985-.646C989.043,129.05,989.146,128.943,989.243,128.833Z" transform="translate(-914.078 -63.805)"/><path class="e" d="M808.364,208.589q-.218-.9-.388-1.8c-7,15.327-3.216,33.618,5.05,49.138a60.655,60.655,0,0,1,1.2-11.848C808.529,233.069,805.472,221.2,808.364,208.589Z" transform="translate(-804.313 -128.958)"/><path class="e" d="M888.286,391.3c-3.3-22.052-20.9-33.078-35.052-51.842-1.887-2.422-3.738-4.9-5.509-7.43,1.429,3.577,2.973,7.19,4.905,10.995,2.813,4.924,5.3,10.008,7.8,15.086C871.389,367.633,885.092,377.1,888.286,391.3Z" transform="translate(-830.26 -204.585)"/><path class="f" d="M868.135,317.282c-1.413-16.857-7.4-30.371-18.371-44.771-7.845-11.289-17.5-21.984-24.741-33.867-4.526-8.355-10.112-18.277-12.284-27.317-2.892,12.616.165,24.48,5.861,35.493a60.646,60.646,0,0,0-1.2,11.848c-.11,16.728,5.911,34.251,13.656,47.708,5.431,9.507,12.068,20.2,18.707,28.52,3.392,5.01,8.9,8.455,10.577,13.756-.106.168-.212.337-.318.5h.464c.052.2.1.393.14.593h.6c.027-.2.046-.407.071-.611.355-.076.707-.16,1.06-.245,13.4-3.232,25.113-12.475,35.679-21.722a106.906,106.906,0,0,0,15.689-20.2c4.224-6.536,12.672-13.071,15.689-20.2q-.736.195-1.481.411c-22.126,20.922-42.7,42.322-66.555,61.268q.09-.858.15-1.714.056-.818.082-1.634c.546-16.167-7.208-31.754-15.47-45.854-2.618-4.582-4.954-9.3-7.282-14.027-2.5-5.078-4.991-10.162-7.8-15.086-1.932-3.8-3.475-7.418-4.905-10.995,1.771,2.53,3.622,5.008,5.508,7.43,14.157,18.763,31.75,29.789,35.053,51.842a28.092,28.092,0,0,1,.55,3.414l.314.93c-.125.271-.245.546-.368.82s-.255.566-.381.848c-.057.125-.114.248-.169.373l.143-.244.416-.718.458-.789.794,2.345q0-1.829-.064-3.6l.667-1.151c.139-.041.274-.084.412-.125a76.72,76.72,0,0,0,11.667-4.54,80.9,80.9,0,0,0,25.008-19.333c7.974-8.922,14.594-19.429,20.842-30.663-21.528,13.588-44.556,29.175-57.1,52.2-.524.961-1.036,1.931-1.523,2.919Q868.3,319.158,868.135,317.282Z" transform="translate(-808.686 -131.697)"/><path class="e" d="M868.547,184.314c-4.224-9.506-13.276-18.419-16.293-28.519-1.207,16.042,7.844,38.026,13.879,52.286,5.609,14.361,16.436,36.932,28.6,48.63-2.9-14.776-5.936-29.006-12.305-42.688C878.2,203.92,873.375,194.414,868.547,184.314Z" transform="translate(-832.902 -98.162)"/><path class="f" d="M914.874,179.678c-1.134-11.94-4.9-26.642-8.182-37.935-5.431-20.8-17.5-38.026-26.551-56.445-2.414,7.724,4.224,17.231,6.035,24.36,3.017,9.507,4.827,19.013,8.448,27.925,5.431,15.448,15.086,30.3,19.913,45.156l.094.092.51.5C915.082,182.15,914.992,180.929,914.874,179.678Z" transform="translate(-849.322 -55.59)"/><path class="g" d="M975.441,241.269c-.009-.343-.017-.686-.03-1.029V246C975.474,244.419,975.479,242.841,975.441,241.269Z" transform="translate(-906.576 -149.157)"/><path class="g" d="M974.49,226.756c.177,1.774.3,3.555.371,5.341v-4.931Z" transform="translate(-906.026 -141.014)"/><path class="f" d="M938.491,29.8c-9.655,8.318-13.276,30.3-12.672,42.185.595,15.25,10.012,25.29,19.542,35.834C942.767,81.694,929.5,56.889,938.491,29.8Z" transform="translate(-876.898 -22.077)"/><path class="f" d="M975.279,110.144c-.008-11.913-.66-31.9-9.051-41.345,0,11.289-1.81,33.866,8.448,40.4l.561,1.1.042.084C975.28,110.309,975.279,110.225,975.279,110.144Z" transform="translate(-901.014 -45.627)"/><path class="g" d="M997.91,142.534q.326-.913.652-1.811l-.049.029Z" transform="translate(-920.024 -89.06)"/><path class="f" d="M999.971,61.705c9.387-5.375,15.908-14.135,21.838-23.478,5.431-8.318,6.034-21.389,12.068-27.925a93.335,93.335,0,0,0-27.725,35.359c-2.378,5.086-4.512,10.485-6.622,16.3C999.68,61.881,999.823,61.79,999.971,61.705Z" transform="translate(-920.993 -10.302)"/><path class="f" d="M1031.771,118.3c-14.346,5.3-33.425,10.6-43.755,22.249-.1.11-.2.217-.3.328l-.985.646-.826.542c.237-.023.471-.05.707-.075.362-.038.724-.075,1.084-.116C1005.123,139.875,1021.269,133.808,1031.771,118.3Z" transform="translate(-912.851 -75.517)"/><path class="e" d="M979.157,178.674c17.951-10.93,39.238-14.7,50.546-36.379-15.769,10.351-40.581,17.919-50.366,35.094q-.488.856-.926,1.743Q978.783,178.9,979.157,178.674Z" transform="translate(-908.369 -90.01)"/><path class="e" d="M1003.111,210.732c7.661-9.219,15.323-18.731,23.195-27.916-12.672,7.273-26.191,19.016-36.47,29.7-7.656,8.118-16.457,17.369-18.56,28.855C980.8,230.087,993.724,222.15,1003.111,210.732Z" transform="translate(-904.105 -114.479)"/><path class="f" d="M969.411,240.991c.217-.127.431-.256.647-.383,25.077-14.778,47.112-32.539,57.282-60.814-.713.383-1.43.784-2.15,1.2-7.873,9.185-15.534,18.7-23.194,27.916-9.388,11.418-22.31,19.355-31.835,30.637-.017.091-.031.182-.047.273-.035.193-.071.386-.1.58Z" transform="translate(-902.99 -112.654)"/><path class="f" d="M960.844,330.784c8-6.992,20.952-11.086,30.108-17.847,11.465-8.912,24.137-21.984,28.965-35.649A358.517,358.517,0,0,0,982.5,301.054c-10.862,8.318-15.086,15.448-21.12,27.925l-.437.717-1.2,1.975c-.27-.233-.539-.474-.807-.719q-.469-.428-.937-.876.184.936.368,1.873l.463.114,1.852.456.1.024-.094-.078c-.294-.239-.586-.488-.878-.74C960.142,331.406,960.49,331.094,960.844,330.784Z" transform="translate(-896.169 -171.529)"/><path class="e" d="M955.063,431.61c-6.6,7.218-11.5,16.617-16.469,25.368-1.043,1.835-2.089,3.644-3.154,5.4-.039.57-.09,1.142-.15,1.714,23.856-18.946,44.428-40.346,66.554-61.268a103.864,103.864,0,0,0-21.775,9.458A80.906,80.906,0,0,1,955.063,431.61Z" transform="translate(-882.597 -247.335)"/></g></g></g></svg>