<svg xmlns="http://www.w3.org/2000/svg" width="20.371" height="23.178" viewBox="0 0 20.371 23.178"><defs><style>.a{opacity:0.486;}.b{fill:rgba(50,56,106,0.5);}</style></defs><g class="a"><g transform="translate(4.074)"><g transform="translate(0)"><path class="b" d="M127.111,0a6.111,6.111,0,1,0,6.111,6.111A6.118,6.118,0,0,0,127.111,0Zm0,10.865a4.753,4.753,0,1,1,4.753-4.753A4.759,4.759,0,0,1,127.111,10.865Z" transform="translate(-121)"/></g></g><g transform="translate(0 13.581)"><path class="b" d="M48.789,302.634A8.712,8.712,0,0,0,42.544,300H39.827a8.712,8.712,0,0,0-6.246,2.634A8.906,8.906,0,0,0,31,308.918a.679.679,0,0,0,.679.679H50.692a.679.679,0,0,0,.679-.679A8.906,8.906,0,0,0,48.789,302.634Zm-16.4,5.6a7.515,7.515,0,0,1,7.44-6.881h2.716a7.515,7.515,0,0,1,7.44,6.881Z" transform="translate(-31 -300)"/></g></g></svg>