<svg id="Layer_1" enable-background="new 0 0 512 512" height="512" viewBox="0 0 512 512" width="512" xmlns="http://www.w3.org/2000/svg"><g><path d="m404.8 382.7c0-17.5-15.4-33.7-43.4-45.6-3-1.3-6.6.1-7.9 3.1s.1 6.6 3.1 7.9h.1c23 9.8 36.1 22.4 36.1 34.6 0 12.9-14.5 26.1-39.8 36.1-27.4 10.9-64 16.8-103 16.8s-75.6-6-103-16.8c-25.3-10-39.8-23.2-39.8-36.1 0-14.2 17.7-28.7 47.5-38.9 3.1-1.1 4.8-4.5 3.7-7.6s-4.5-4.8-7.6-3.7c-35.8 12.3-55.6 30.1-55.6 50.2 0 18.4 16.8 35.1 47.4 47.2 28.8 11.4 66.9 17.7 107.4 17.7s78.6-6.3 107.4-17.7c30.5-12.1 47.4-28.9 47.4-47.2z"/><path d="m167.9 485.3c-90.2-16.3-150.9-56.2-150.9-99.3 0-40.4 53.1-78.2 135.2-96.2 3.2-.7 5.3-3.9 4.6-7.1s-3.9-5.3-7.1-4.6c-42 9.2-77.7 23.7-103.2 41.9-27.2 19.4-41.5 42.2-41.5 66 0 49.9 63.1 93.5 160.8 111.1 3.3.6 6.4-1.6 7-4.8.5-3.3-1.6-6.4-4.9-7z"/><path d="m459.4 322.8c-23-17.5-55.7-32-94.4-41.8-3.2-.8-6.5 1.1-7.3 4.3s1.1 6.5 4.3 7.3c37.1 9.4 68.3 23.1 90.1 39.7 15 11.4 32.9 30 32.9 53.6 0 41.3-54.6 79.3-139.1 97-3.2.7-5.3 3.8-4.7 7.1s3.8 5.3 7.1 4.7h.1c43.1-9 79.8-23.5 106-41.9 27.9-19.6 42.7-42.7 42.7-66.9-.1-22.5-13.1-44.3-37.7-63.1z"/><path d="m290.9 112.5c11.7 5.7 25.4 5.7 37.1 0 9.5-4.6 15.4-11.7 17.5-21.1 5.8-25.1-18.3-59.6-29-73.2-3-3.9-8.7-4.7-12.6-1.6-.6.5-1.1 1-1.6 1.6-10.6 13.6-34.8 48-29 73.2 2.3 9.5 8.2 16.5 17.6 21.1zm3.4-60.2c4.5-8.2 9.5-16.1 15.2-23.6 5.7 7.5 10.7 15.3 15.2 23.6 8 15.1 11.2 27.7 9.2 36.4-1.3 5.8-5 10-11.1 13-8.4 4.1-18.2 4.1-26.6 0-6.1-3-9.8-7.2-11.1-13-2-8.7 1.1-21.3 9.2-36.4z"/><path d="m316.1 300.2c0-3.3-2.7-6-6-6s-6 2.7-6 6c0 22-17.9 39.9-39.9 39.9-3.3 0-6 2.7-6 6s2.7 6 6 6c28.6-.1 51.8-23.3 51.9-51.9z"/><path d="m209.4 372c29.4 14.4 63.8 14.4 93.2 0 23.1-11.2 37.5-28.4 42.8-51.1 7-30.1-2.3-69.3-27.4-116.5-16.8-31.6-36.8-59.3-50.6-76.9-4.8-6.2-13.7-7.4-20-2.7-1 .8-1.9 1.7-2.7 2.7-13.8 17.6-33.8 45.3-50.6 76.9-6.5 12.1-12.3 24.6-17.3 37.4-1.2 3.1.4 6.6 3.5 7.7.7.3 1.4.4 2.1.4 2.5 0 4.7-1.5 5.6-3.8 18.1-47.1 52.1-93.4 66.1-111.2.7-1 2.1-1.3 3.1-.6.2.2.4.4.6.6 21.4 27.4 90.1 121.6 75.8 183.3-4.5 19.2-16.3 33.3-36.3 43-26.1 12.8-56.6 12.8-82.7 0-20-9.7-31.9-23.8-36.3-43-2.4-10.4-2.5-21.6-.8-33.4.5-3.3-1.8-6.3-5.1-6.8-.3 0-.6-.1-.9-.1-3 0-5.5 2.2-5.9 5.1-2 13.8-1.6 26.4 1 37.8 5.3 22.7 19.7 39.9 42.8 51.2z"/></g></svg>