<svg xmlns="http://www.w3.org/2000/svg" xmlns:xlink="http://www.w3.org/1999/xlink" width="70.166" height="78.192" viewBox="0 0 70.166 78.192"><defs><clipPath id="a"><path d="M0-847.441H70.166v78.192H0Z" transform="translate(0 847.441)" fill="#fff"/></clipPath></defs><g clip-path="url(#a)"><g transform="translate(24.011 0.692)"><path d="M-118.005-18.155a10.161,10.161,0,0,0-10.15,10.15,10.161,10.161,0,0,0,10.15,10.15,10.161,10.161,0,0,0,10.15-10.15,10.161,10.161,0,0,0-10.15-10.15m0,22.144A12.009,12.009,0,0,1-130-8.005,12.009,12.009,0,0,1-118.005-20,12.008,12.008,0,0,1-106.01-8.005,12.008,12.008,0,0,1-118.005,3.99" transform="translate(130 20)" fill="#fff"/></g><g transform="translate(23.319 0)"><path d="M-124.813-24.963v-.692a10.786,10.786,0,0,0-4.217.854,10.9,10.9,0,0,0-4.77,3.93,10.784,10.784,0,0,0-1.854,6.058A10.786,10.786,0,0,0-134.8-10.6a10.9,10.9,0,0,0,3.93,4.77,10.784,10.784,0,0,0,6.058,1.855,10.786,10.786,0,0,0,4.217-.854,10.9,10.9,0,0,0,4.77-3.93,10.784,10.784,0,0,0,1.855-6.058,10.788,10.788,0,0,0-.854-4.217,10.9,10.9,0,0,0-3.93-4.77,10.784,10.784,0,0,0-6.058-1.854v1.384a9.4,9.4,0,0,1,3.677.744,9.52,9.52,0,0,1,4.164,3.43,9.4,9.4,0,0,1,1.617,5.283,9.4,9.4,0,0,1-.744,3.677,9.521,9.521,0,0,1-3.43,4.164,9.4,9.4,0,0,1-5.283,1.617A9.4,9.4,0,0,1-128.49-6.1a9.52,9.52,0,0,1-4.164-3.43,9.4,9.4,0,0,1-1.617-5.283,9.4,9.4,0,0,1,.744-3.677,9.521,9.521,0,0,1,3.43-4.164,9.4,9.4,0,0,1,5.283-1.617Zm0,22.144V-3.51a11.237,11.237,0,0,1-4.394-.889,11.376,11.376,0,0,1-4.976-4.1,11.234,11.234,0,0,1-1.933-6.314,11.236,11.236,0,0,1,.889-4.394,11.377,11.377,0,0,1,4.1-4.976,11.235,11.235,0,0,1,6.314-1.933,11.237,11.237,0,0,1,4.395.889,11.377,11.377,0,0,1,4.976,4.1,11.234,11.234,0,0,1,1.933,6.314,11.238,11.238,0,0,1-.889,4.394,11.377,11.377,0,0,1-4.1,4.976,11.234,11.234,0,0,1-6.314,1.933v1.384a12.62,12.62,0,0,0,4.934-1,12.759,12.759,0,0,0,5.582-4.6,12.619,12.619,0,0,0,2.17-7.089,12.622,12.622,0,0,0-1-4.934,12.76,12.76,0,0,0-4.6-5.582,12.619,12.619,0,0,0-7.089-2.17,12.62,12.62,0,0,0-4.934,1,12.759,12.759,0,0,0-5.582,4.6,12.62,12.62,0,0,0-2.17,7.089,12.62,12.62,0,0,0,1,4.934A12.759,12.759,0,0,0-131.9-4.3a12.62,12.62,0,0,0,7.089,2.17Z" transform="translate(137.5 27.5)" fill="#fff"/></g><g transform="translate(17.751 26.843)"><path d="M-38.457-287.9a1.378,1.378,0,0,1-.357-.045c-1.332-.338-2.279-1.9-2.888-4.764a32.373,32.373,0,0,1-.629-5.8l-.01-.688a53.769,53.769,0,0,1,.3-8.411c.952-6.338,4.563-9.551,10.731-9.551h10.9a.923.923,0,0,1,.923.923.923.923,0,0,1-.923.923H-31.3c-5.258,0-8.089,2.536-8.906,7.98a52.477,52.477,0,0,0-.284,8.11l.01.69a30.865,30.865,0,0,0,.589,5.446c.579,2.726,1.284,3.245,1.491,3.341a22.665,22.665,0,0,0,5.5-2.729c2.9-1.807,5.057-3.608,5.775-4.826.51-1.075,1.11-6.276,1.37-9.325a.923.923,0,0,1,1-.841.923.923,0,0,1,.841,1c-.118,1.385-.749,8.379-1.569,10.017l-.026.048c-1.265,2.192-5.107,4.7-6.7,5.674a37.864,37.864,0,0,1-3.818,2.069,6.432,6.432,0,0,1-2.417.767" transform="translate(42.366 317.16)" fill="#fff"/></g><g transform="translate(17.059 26.151)"><path d="M-45.265-294.7v-.692a.679.679,0,0,1-.182-.022h0a1.636,1.636,0,0,1-.654-.344,2.771,2.771,0,0,1-.482-.536,5.993,5.993,0,0,1-.679-1.346,14.116,14.116,0,0,1-.566-2.011,31.724,31.724,0,0,1-.614-5.67h0l-.01-.688h0c-.013-.895-.026-1.8-.026-2.688a38.589,38.589,0,0,1,.323-5.61,14.051,14.051,0,0,1,1.151-3.971,8.951,8.951,0,0,1,1.444-2.183,7.94,7.94,0,0,1,3.1-2.092,12.159,12.159,0,0,1,4.349-.715h10.9a.228.228,0,0,1,.09.018.235.235,0,0,1,.1.084.226.226,0,0,1,.039.129.228.228,0,0,1-.018.09.234.234,0,0,1-.084.1.226.226,0,0,1-.128.039h-10.9a12.232,12.232,0,0,0-3.7.514,7.99,7.99,0,0,0-2.24,1.1,7.789,7.789,0,0,0-2.4,2.827,13.251,13.251,0,0,0-1.246,4.127,38.266,38.266,0,0,0-.317,5.548c0,.893.013,1.791.026,2.676h0l.01.691v0c.009.681.056,1.58.152,2.558a28.128,28.128,0,0,0,.452,3.023,10.093,10.093,0,0,0,.96,2.855,3.055,3.055,0,0,0,.478.651,1.541,1.541,0,0,0,.439.319l.18.083.2-.025a1.972,1.972,0,0,0,.2-.038c.125-.03.257-.07.406-.121q.389-.134.922-.37a36.022,36.022,0,0,0,4.245-2.3,34.109,34.109,0,0,0,3.784-2.69,15.712,15.712,0,0,0,1.33-1.234,6.57,6.57,0,0,0,.89-1.138l.016-.027.013-.028a2.886,2.886,0,0,0,.128-.327c.072-.218.138-.47.2-.761.114-.507.224-1.128.332-1.818.321-2.07.61-4.766.771-6.657a.226.226,0,0,1,.074-.15.228.228,0,0,1,.155-.061h.02a.228.228,0,0,1,.151.074.228.228,0,0,1,.061.155v.021h0c-.059.687-.245,2.775-.518,4.884-.136,1.054-.294,2.114-.466,3-.086.442-.175.84-.265,1.167-.045.163-.089.308-.132.43a2.53,2.53,0,0,1-.117.287l.619.31-.61-.328-.026.048.609.328-.6-.346a7.709,7.709,0,0,1-1.244,1.529,23.37,23.37,0,0,1-2.773,2.282c-.957.686-1.858,1.259-2.445,1.618a37.234,37.234,0,0,1-3.745,2.03,11.719,11.719,0,0,1-1.456.577,2.424,2.424,0,0,1-.673.127v1.384a3.741,3.741,0,0,0,1.071-.186,13.023,13.023,0,0,0,1.635-.644,38.537,38.537,0,0,0,3.891-2.108,40.425,40.425,0,0,0,3.536-2.424,21.384,21.384,0,0,0,1.934-1.674,9.023,9.023,0,0,0,1.469-1.82l.005-.009.031-.057,0-.009,0-.009a3.874,3.874,0,0,0,.186-.448,10.068,10.068,0,0,0,.292-1.045c.159-.686.3-1.5.432-2.359.2-1.288.359-2.676.484-3.851s.21-2.136.246-2.566h0c0-.046.006-.092.006-.138a1.613,1.613,0,0,0-.423-1.088,1.613,1.613,0,0,0-1.055-.52h0c-.046,0-.092-.006-.137-.006a1.614,1.614,0,0,0-1.088.423,1.611,1.611,0,0,0-.52,1.055c-.129,1.513-.343,3.569-.587,5.369-.122.9-.252,1.736-.38,2.4-.064.333-.128.623-.188.853-.03.114-.059.214-.085.293a1.586,1.586,0,0,1-.065.17l.625.3-.6-.352a5.257,5.257,0,0,1-.7.89,17.08,17.08,0,0,1-1.983,1.739c-.821.63-1.786,1.295-2.858,1.962a37.443,37.443,0,0,1-3.472,1.93c-.468.225-.87.4-1.179.519-.154.059-.285.105-.386.135-.05.015-.092.027-.124.034s-.053.011-.057.011l.087.687.29-.628-.068.147.082-.14-.014-.007-.068.147.082-.14-.013.023.014-.022h0l-.013.023.014-.022a.551.551,0,0,1-.106-.1,3.061,3.061,0,0,1-.44-.794,11.4,11.4,0,0,1-.573-1.967,26.748,26.748,0,0,1-.428-2.871c-.092-.938-.137-1.806-.145-2.441h0l-.01-.69h0c-.013-.885-.026-1.776-.026-2.656a37.009,37.009,0,0,1,.3-5.342,12.424,12.424,0,0,1,.941-3.357,7.14,7.14,0,0,1,1.154-1.791,6.141,6.141,0,0,1,2.5-1.676,10.414,10.414,0,0,1,3.629-.567h10.9a1.613,1.613,0,0,0,.629-.127,1.618,1.618,0,0,0,.71-.584,1.613,1.613,0,0,0,.276-.9,1.615,1.615,0,0,0-.127-.629,1.618,1.618,0,0,0-.584-.71,1.611,1.611,0,0,0-.9-.276h-10.9a13.966,13.966,0,0,0-4.361.635,9.8,9.8,0,0,0-2.66,1.331,9.587,9.587,0,0,0-2.889,3.347,14.919,14.919,0,0,0-1.506,4.827,39.887,39.887,0,0,0-.338,5.816c0,.906.013,1.813.026,2.708h0l.01.688h0a33.044,33.044,0,0,0,.644,5.939,16.119,16.119,0,0,0,.545,1.992,7.045,7.045,0,0,0,1.148,2.17,3.672,3.672,0,0,0,.776.713,2.952,2.952,0,0,0,.925.416h0a2.073,2.073,0,0,0,.531.067Z" transform="translate(49.866 324.66)" fill="#fff"/></g><g transform="translate(31.373 26.843)"><path d="M-186.708-287.9a6.442,6.442,0,0,1-2.417-.768,37.885,37.885,0,0,1-3.818-2.069c-1.593-.975-5.435-3.481-6.7-5.674l-.026-.048c-.829-1.654-1.823-9.129-1.934-9.976a.923.923,0,0,1,.8-1.034.922.922,0,0,1,1.034.8c.4,3.058,1.223,8.277,1.743,9.366.718,1.218,2.873,3.02,5.775,4.827a22.691,22.691,0,0,0,5.495,2.729c.214-.1.916-.626,1.492-3.341a30.882,30.882,0,0,0,.589-5.446l.01-.69a52.488,52.488,0,0,0-.284-8.11c-.818-5.444-3.648-7.98-8.906-7.98h-10.9a.923.923,0,0,1-.923-.923.923.923,0,0,1,.923-.923h10.9c6.169,0,9.779,3.213,10.731,9.551a53.77,53.77,0,0,1,.3,8.411l-.01.688a32.375,32.375,0,0,1-.629,5.8c-.609,2.867-1.555,4.426-2.893,4.765a1.351,1.351,0,0,1-.351.044" transform="translate(205.687 317.167)" fill="#fff"/></g><g transform="translate(30.681 26.151)"><path d="M-193.516-294.71v-.692a2.416,2.416,0,0,1-.671-.127,11.732,11.732,0,0,1-1.458-.578,37.214,37.214,0,0,1-3.745-2.03,39,39,0,0,1-3.41-2.337,20.013,20.013,0,0,1-1.807-1.564,7.7,7.7,0,0,1-1.244-1.529l-.6.346.609-.328-.026-.048-.609.328.619-.31a2.928,2.928,0,0,1-.125-.3c-.087-.241-.183-.566-.28-.944-.169-.662-.342-1.487-.5-2.358-.488-2.614-.89-5.639-.958-6.153a.242.242,0,0,1,0-.031.229.229,0,0,1,.057-.151.227.227,0,0,1,.144-.077h0l.031,0a.227.227,0,0,1,.15.057.227.227,0,0,1,.077.144c.2,1.539.508,3.614.831,5.452.162.919.327,1.777.488,2.485.08.354.159.67.238.942.039.136.078.261.119.376a3.253,3.253,0,0,0,.129.32l.013.027.015.026a6.576,6.576,0,0,0,.89,1.138,18.467,18.467,0,0,0,2.146,1.886c.863.662,1.864,1.35,2.969,2.038a38.828,38.828,0,0,0,3.6,2c.495.238.925.426,1.28.563.178.069.338.125.482.169.072.022.141.041.207.057a1.949,1.949,0,0,0,.2.038l.2.026.182-.085a1.554,1.554,0,0,0,.442-.323,3.753,3.753,0,0,0,.722-1.142,12.12,12.12,0,0,0,.713-2.36,28.1,28.1,0,0,0,.452-3.022c.1-.978.143-1.876.152-2.558l.01-.69h0c.013-.885.026-1.782.026-2.676a38.287,38.287,0,0,0-.317-5.548,13.8,13.8,0,0,0-1.053-3.731,8.531,8.531,0,0,0-1.379-2.135,7.535,7.535,0,0,0-3.048-2.051,11.787,11.787,0,0,0-4.111-.653h-10.9a.224.224,0,0,1-.089-.018.234.234,0,0,1-.1-.084.226.226,0,0,1-.039-.128.227.227,0,0,1,.018-.09.234.234,0,0,1,.084-.1.225.225,0,0,1,.128-.039h10.9a12.59,12.59,0,0,1,3.93.567,8.411,8.411,0,0,1,2.287,1.142,8.2,8.2,0,0,1,2.472,2.872,13.545,13.545,0,0,1,1.358,4.381,38.582,38.582,0,0,1,.323,5.611c0,.892-.013,1.793-.026,2.688l-.01.688h0a31.711,31.711,0,0,1-.614,5.67,14.724,14.724,0,0,1-.5,1.82,5.7,5.7,0,0,1-.909,1.745,2.3,2.3,0,0,1-.484.448,1.585,1.585,0,0,1-.5.224h0a.663.663,0,0,1-.176.021v1.384a2.049,2.049,0,0,0,.526-.066h0a3.039,3.039,0,0,0,1.2-.624,4.158,4.158,0,0,0,.727-.8,7.344,7.344,0,0,0,.845-1.658,15.447,15.447,0,0,0,.624-2.21,33.043,33.043,0,0,0,.644-5.939l.01-.688h0c.013-.895.026-1.8.026-2.708a39.886,39.886,0,0,0-.338-5.816,15.422,15.422,0,0,0-1.271-4.361,10.328,10.328,0,0,0-1.669-2.518,9.328,9.328,0,0,0-3.634-2.455,13.535,13.535,0,0,0-4.842-.806h-10.9a1.613,1.613,0,0,0-.629.127,1.617,1.617,0,0,0-.71.584,1.612,1.612,0,0,0-.276.9,1.614,1.614,0,0,0,.127.629,1.618,1.618,0,0,0,.584.71,1.612,1.612,0,0,0,.9.276h10.9a10.868,10.868,0,0,1,3.286.449,6.6,6.6,0,0,1,1.855.91,6.4,6.4,0,0,1,1.974,2.335,11.883,11.883,0,0,1,1.107,3.7,36.982,36.982,0,0,1,.3,5.342c0,.88-.013,1.771-.026,2.656l-.01.69h0c-.008.635-.053,1.5-.146,2.441a26.744,26.744,0,0,1-.428,2.871,8.838,8.838,0,0,1-.807,2.453,1.725,1.725,0,0,1-.257.361.423.423,0,0,1-.052.046l0,0h0l.062.1-.049-.105-.013.007.062.1-.049-.105.292.627.088-.686s-.026,0-.058-.012c-.06-.014-.156-.042-.274-.083-.207-.072-.485-.182-.814-.328a34.738,34.738,0,0,1-4.072-2.207,32.758,32.758,0,0,1-3.628-2.578,14.324,14.324,0,0,1-1.212-1.123,5.248,5.248,0,0,1-.7-.89l-.6.351.624-.3a1.9,1.9,0,0,1-.072-.182c-.055-.155-.119-.377-.187-.642-.119-.465-.248-1.067-.379-1.743-.393-2.029-.8-4.723-1.043-6.591a1.612,1.612,0,0,0-.54-1.008,1.612,1.612,0,0,0-1.06-.4,1.626,1.626,0,0,0-.211.014h0a1.612,1.612,0,0,0-1.008.54,1.614,1.614,0,0,0-.4,1.06,1.618,1.618,0,0,0,.014.21c.056.429.333,2.515.7,4.71.184,1.1.391,2.223.607,3.19.108.483.218.927.331,1.312.057.193.114.371.173.535a4.236,4.236,0,0,0,.189.45l0,.009.03.057,0,.009.005.009a9.012,9.012,0,0,0,1.468,1.82,24.679,24.679,0,0,0,2.941,2.425c.994.712,1.92,1.3,2.528,1.673a38.527,38.527,0,0,0,3.891,2.108,13,13,0,0,0,1.637.645,3.735,3.735,0,0,0,1.069.186Z" transform="translate(213.187 324.667)" fill="#fff"/></g><g transform="translate(0.692 51.404)"><path d="M-72-256.729c-4.444,0-6.187-1.589-6.866-2.935a4.742,4.742,0,0,1,.482-4.821c2.147-2.831,9.094-3.712,16.027-4.372a30.21,30.21,0,0,0,3.074-.368c.191-.068.418-.141.681-.224,1.915-.608,5.479-1.74,6.034-4.793a15.143,15.143,0,0,0-.6-7.4.923.923,0,0,1,.627-1.144.923.923,0,0,1,1.145.627,17.058,17.058,0,0,1,.646,8.249c-.754,4.145-5.169,5.548-7.291,6.221-.246.078-.458.146-.618.2a20.481,20.481,0,0,1-3.522.468c-4.185.4-12.894,1.227-14.731,3.65a2.928,2.928,0,0,0-.305,2.875c.642,1.273,2.575,1.955,5.433,1.919,4.1-.051,9.939-.986,15.582-1.889,8.3-1.33,15.471-2.478,18.067-1.146a.923.923,0,0,1,.4,1.242.923.923,0,0,1-1.242.4c-2.059-1.056-9.961.21-16.933,1.326-5.708.914-11.611,1.86-15.851,1.912l-.237,0" transform="translate(79.322 282.825)" fill="#fff"/></g><g transform="translate(0 50.712)"><path d="M-78.812-263.536v-.692a13.056,13.056,0,0,1-2.708-.254,6.188,6.188,0,0,1-2.446-1.024,3.61,3.61,0,0,1-1.095-1.277,3.6,3.6,0,0,1-.379-1.633,4.285,4.285,0,0,1,.23-1.37,3.889,3.889,0,0,1,.564-1.088,4.116,4.116,0,0,1,.875-.831,9.838,9.838,0,0,1,2.52-1.231,32.4,32.4,0,0,1,5.526-1.261c2.085-.322,4.349-.561,6.619-.777.651-.062,1.348-.128,1.925-.193.289-.032.548-.064.762-.1.107-.016.2-.032.291-.049.044-.009.085-.018.127-.028s.083-.021.132-.038h0c.172-.062.394-.133.658-.216h0c.479-.152,1.077-.342,1.715-.591a10.448,10.448,0,0,0,2.906-1.633,5.867,5.867,0,0,0,1.188-1.332,4.9,4.9,0,0,0,.7-1.772,14,14,0,0,0,.234-2.527,18.288,18.288,0,0,0-.852-5.192.227.227,0,0,1-.009-.065.231.231,0,0,1,.046-.137.225.225,0,0,1,.12-.084l.035-.01-.035.01a.235.235,0,0,1,.065-.009.232.232,0,0,1,.137.046.224.224,0,0,1,.084.121,18.816,18.816,0,0,1,.868,5.337,14.376,14.376,0,0,1-.239,2.594,5.363,5.363,0,0,1-1.028,2.33,6.731,6.731,0,0,1-1.3,1.276,10.983,10.983,0,0,1-2.348,1.315c-.792.335-1.546.575-2.142.764l-.033.01.033-.01c-.246.078-.462.147-.641.211h0a2.537,2.537,0,0,1-.364.091c-.258.049-.627.1-1.118.154s-1.108.114-1.872.187c-1.047.1-2.382.227-3.826.4a52.944,52.944,0,0,0-6.648,1.155,16.624,16.624,0,0,0-2.8.954,7.135,7.135,0,0,0-1.1.624,3.769,3.769,0,0,0-.841.787,2.969,2.969,0,0,0-.265.423,3.915,3.915,0,0,0-.307.8,3.782,3.782,0,0,0-.128.963,3.135,3.135,0,0,0,.328,1.419,3.144,3.144,0,0,0,.886,1.057,5.485,5.485,0,0,0,2.1.944,12.208,12.208,0,0,0,2.855.3h.22a64.561,64.561,0,0,0,7.3-.631c2.691-.355,5.565-.815,8.387-1.267,2.846-.456,5.555-.89,7.982-1.208a50.808,50.808,0,0,1,6.28-.521,13.627,13.627,0,0,1,2.041.131,4.489,4.489,0,0,1,1.339.385.225.225,0,0,1,.092.086.236.236,0,0,1,.033.12.226.226,0,0,1-.026.1h0a.226.226,0,0,1-.086.092.237.237,0,0,1-.12.033.227.227,0,0,1-.1-.026h0a3.188,3.188,0,0,0-.618-.232,6.623,6.623,0,0,0-1.1-.186c-.406-.038-.85-.055-1.331-.055-.89,0-1.9.058-3.01.156-3.313.3-7.449.959-11.3,1.575-2.854.457-5.751.921-8.457,1.276a64.753,64.753,0,0,1-7.293.627h-.228v1.384h.246a66.054,66.054,0,0,0,7.456-.639c2.733-.359,5.641-.825,8.5-1.282,2.563-.41,5.247-.84,7.712-1.166,1.232-.163,2.41-.3,3.488-.4s2.057-.151,2.887-.151a11.421,11.421,0,0,1,1.534.087,4.382,4.382,0,0,1,.539.106,1.821,1.821,0,0,1,.349.128h0a1.614,1.614,0,0,0,.736.178,1.619,1.619,0,0,0,.831-.23,1.611,1.611,0,0,0,.607-.648h0a1.611,1.611,0,0,0,.178-.736,1.618,1.618,0,0,0-.23-.831,1.611,1.611,0,0,0-.648-.607,5.821,5.821,0,0,0-1.76-.521,14.978,14.978,0,0,0-2.252-.147,52.036,52.036,0,0,0-6.46.533c-2.456.323-5.174.758-8.02,1.214-2.821.452-5.685.91-8.349,1.262a63.325,63.325,0,0,1-7.132.619h-.2a9.4,9.4,0,0,1-3.166-.452,3.436,3.436,0,0,1-.935-.5,1.759,1.759,0,0,1-.5-.59,1.75,1.75,0,0,1-.18-.8,2.473,2.473,0,0,1,.14-.8,2.459,2.459,0,0,1,.139-.326,1.591,1.591,0,0,1,.139-.225,2.826,2.826,0,0,1,.8-.662,7.856,7.856,0,0,1,1.183-.568,20.057,20.057,0,0,1,2.827-.831c1.581-.359,3.343-.633,5.007-.844s3.231-.36,4.432-.475c1.02-.1,1.782-.171,2.364-.244.292-.037.538-.073.753-.114a3.833,3.833,0,0,0,.572-.147h0c.14-.05.349-.117.594-.195h0c.531-.169,1.224-.389,1.977-.691a11.891,11.891,0,0,0,3.486-2.061,7.431,7.431,0,0,0,1.44-1.717,6.748,6.748,0,0,0,.859-2.289,15.762,15.762,0,0,0,.261-2.842,20.192,20.192,0,0,0-.924-5.725,1.612,1.612,0,0,0-.59-.846,1.614,1.614,0,0,0-.959-.316,1.617,1.617,0,0,0-.453.065h0a1.612,1.612,0,0,0-.846.59,1.615,1.615,0,0,0-.316.959,1.615,1.615,0,0,0,.065.453,16.918,16.918,0,0,1,.8,4.8,12.616,12.616,0,0,1-.212,2.28,3.509,3.509,0,0,1-.284.884,4.088,4.088,0,0,1-.952,1.253,7.911,7.911,0,0,1-2.143,1.329,21.14,21.14,0,0,1-2.183.791h0c-.263.084-.5.157-.705.232l.005,0,.065.185-.059-.187-.006,0,.065.185-.059-.187.018.058-.017-.058h0l.018.058-.017-.058s-.044.012-.1.023c-.108.02-.275.045-.474.07-.6.077-1.506.163-2.339.242-1.737.165-3.479.345-5.152.566a41.126,41.126,0,0,0-6.832,1.382,13.709,13.709,0,0,0-2.638,1.114,6.177,6.177,0,0,0-1.89,1.58,5.266,5.266,0,0,0-.772,1.479,5.673,5.673,0,0,0-.3,1.816,4.986,4.986,0,0,0,.527,2.256,4.849,4.849,0,0,0,.856,1.2,6.241,6.241,0,0,0,2.452,1.505,12.555,12.555,0,0,0,4.176.613Z" transform="translate(86.823 290.324)" fill="#fff"/></g><g transform="translate(26.69 50.369)"><path d="M-348.9-266.915l-.237,0c-4.859-.06-11.924-2.124-18.756-4.12-3.591-1.049-6.983-2.04-9.744-2.638-3.531-.764-4.877-.615-5.384-.355a.922.922,0,0,1-1.242-.4.923.923,0,0,1,.4-1.242c2.308-1.184,7.769.317,16.488,2.864,6.4,1.87,13.655,3.989,18.261,4.046,2.862.037,4.79-.646,5.433-1.919a2.928,2.928,0,0,0-.3-2.875c-1.837-2.422-10.546-3.251-14.731-3.65a20.478,20.478,0,0,1-3.522-.468c-.16-.057-.372-.125-.618-.2-2.122-.674-6.537-2.076-7.291-6.221a18.151,18.151,0,0,1,.972-9.308.923.923,0,0,1,1.161-.6.923.923,0,0,1,.6,1.161,16.5,16.5,0,0,0-.913,8.413c.555,3.053,4.119,4.185,6.034,4.793.263.084.49.156.681.224a30.234,30.234,0,0,0,3.074.368c6.932.66,13.88,1.541,16.027,4.372a4.743,4.743,0,0,1,.482,4.821c-.679,1.346-2.423,2.935-6.866,2.935" transform="translate(384.366 294.046)" fill="#fff"/></g><g transform="translate(25.998 49.677)"><path d="M-355.709-273.724v-.692l-.228,0a27.286,27.286,0,0,1-3.918-.38c-2.144-.344-4.528-.9-7.014-1.553s-5.076-1.411-7.638-2.16c-3.592-1.049-6.993-2.044-9.792-2.65a20.972,20.972,0,0,0-4.226-.582,5.412,5.412,0,0,0-.946.072,2.4,2.4,0,0,0-.675.214h0a.226.226,0,0,1-.1.026.234.234,0,0,1-.12-.033.224.224,0,0,1-.086-.092.229.229,0,0,1-.026-.1.236.236,0,0,1,.033-.12.226.226,0,0,1,.092-.086h0a2.8,2.8,0,0,1,.768-.246,6.055,6.055,0,0,1,1.1-.088,15.419,15.419,0,0,1,2.416.23c1.4.227,3.082.617,5.032,1.133s4.173,1.157,6.663,1.885c3.2.935,6.623,1.935,9.835,2.711,1.606.388,3.16.72,4.611.96a27.117,27.117,0,0,0,4,.4h0l.228,0a10.682,10.682,0,0,0,3.639-.538,4.791,4.791,0,0,0,1.308-.707,3.145,3.145,0,0,0,.884-1.056,3.132,3.132,0,0,0,.328-1.419,3.843,3.843,0,0,0-.216-1.25,3.843,3.843,0,0,0-.219-.512,3,3,0,0,0-.265-.423,4.171,4.171,0,0,0-1.182-1.01,9.2,9.2,0,0,0-1.394-.672,21.415,21.415,0,0,0-3.026-.892c-1.648-.374-3.448-.652-5.139-.867s-3.273-.365-4.475-.48c-1.018-.1-1.775-.17-2.323-.239-.274-.034-.5-.068-.668-.1a2.532,2.532,0,0,1-.363-.091h0c-.179-.064-.395-.132-.641-.211-.53-.168-1.184-.376-1.88-.656a10.541,10.541,0,0,1-3.082-1.81,6.055,6.055,0,0,1-1.175-1.4,5.359,5.359,0,0,1-.683-1.823,14.549,14.549,0,0,1-.24-2.619,15.936,15.936,0,0,1,.324-3.129,28.983,28.983,0,0,1,.865-3.225.226.226,0,0,1,.084-.116.233.233,0,0,1,.135-.044.229.229,0,0,1,.071.011h0a.225.225,0,0,1,.116.084.231.231,0,0,1,.044.135.233.233,0,0,1-.011.071,28.354,28.354,0,0,0-.839,3.118,15.726,15.726,0,0,0-.326,3.111,13.992,13.992,0,0,0,.229,2.519,4.881,4.881,0,0,0,.4,1.231,5.463,5.463,0,0,0,1.267,1.68,9.259,9.259,0,0,0,2.519,1.574,22.48,22.48,0,0,0,2.323.844c.263.083.485.154.658.216h.005c.049.017.09.028.132.039.078.019.157.034.247.05.156.027.342.052.554.079.634.078,1.5.161,2.3.237,1.729.165,3.456.343,5.1.561a39.828,39.828,0,0,1,6.595,1.329,12.355,12.355,0,0,1,2.37,1,4.823,4.823,0,0,1,1.474,1.215,3.889,3.889,0,0,1,.564,1.088,4.287,4.287,0,0,1,.23,1.37,3.6,3.6,0,0,1-.378,1.633,3.466,3.466,0,0,1-.613.856,4.863,4.863,0,0,1-1.919,1.164,11.2,11.2,0,0,1-3.716.534v1.384a14.408,14.408,0,0,0,3-.284,7.564,7.564,0,0,0,2.984-1.267,5,5,0,0,0,1.5-1.764,4.987,4.987,0,0,0,.527-2.256,5.668,5.668,0,0,0-.3-1.816,5.267,5.267,0,0,0-.772-1.479,5.487,5.487,0,0,0-1.166-1.116,11.162,11.162,0,0,0-2.878-1.418,33.7,33.7,0,0,0-5.77-1.322c-2.131-.329-4.419-.57-6.7-.787-.651-.062-1.343-.128-1.9-.19-.28-.031-.527-.062-.713-.089-.093-.014-.171-.027-.226-.038l-.063-.014-.012,0h0l-.045.15.051-.148-.006,0-.045.15.051-.148.005,0c-.21-.075-.442-.149-.705-.232-.478-.152-1.044-.332-1.63-.561a9.109,9.109,0,0,1-2.521-1.4,4.486,4.486,0,0,1-.911-1.016,3.516,3.516,0,0,1-.5-1.275,12.617,12.617,0,0,1-.207-2.272,14.347,14.347,0,0,1,.3-2.84,26.981,26.981,0,0,1,.8-2.966,1.618,1.618,0,0,0,.078-.495,1.615,1.615,0,0,0-.3-.941,1.612,1.612,0,0,0-.817-.6h0a1.615,1.615,0,0,0-.494-.078,1.617,1.617,0,0,0-.941.3,1.612,1.612,0,0,0-.6.817,30.341,30.341,0,0,0-.906,3.379,17.311,17.311,0,0,0-.351,3.4,15.922,15.922,0,0,0,.262,2.867,6.753,6.753,0,0,0,1.289,2.922,8.112,8.112,0,0,0,1.567,1.54,12.362,12.362,0,0,0,2.644,1.486c.862.364,1.665.618,2.262.808.245.078.454.145.594.195h0a3.828,3.828,0,0,0,.572.147c.323.061.717.113,1.225.17s1.128.116,1.893.189c1.046.1,2.369.226,3.792.4a51.671,51.671,0,0,1,6.467,1.121,15.3,15.3,0,0,1,2.563.87,5.772,5.772,0,0,1,.887.5,2.416,2.416,0,0,1,.536.493,1.607,1.607,0,0,1,.139.225,2.535,2.535,0,0,1,.2.514,2.4,2.4,0,0,1,.082.61,1.748,1.748,0,0,1-.18.8,1.761,1.761,0,0,1-.5.59,4.126,4.126,0,0,1-1.568.689,10.807,10.807,0,0,1-2.525.261h-.211a25.811,25.811,0,0,1-3.792-.384c-2.108-.348-4.481-.906-6.924-1.552s-4.959-1.381-7.359-2.082c-3.325-.971-6.182-1.793-8.587-2.374-1.2-.291-2.293-.522-3.276-.681a16.762,16.762,0,0,0-2.638-.248,7.427,7.427,0,0,0-1.351.112,4.178,4.178,0,0,0-1.146.376h0a1.611,1.611,0,0,0-.648.607,1.62,1.62,0,0,0-.23.831,1.612,1.612,0,0,0,.178.736,1.612,1.612,0,0,0,.607.648,1.619,1.619,0,0,0,.831.23,1.614,1.614,0,0,0,.736-.178h0a1.068,1.068,0,0,1,.287-.083,4.054,4.054,0,0,1,.7-.051,19.745,19.745,0,0,1,3.933.55c2.722.589,6.106,1.577,9.7,2.626,3.416,1,6.9,2.016,10.151,2.795,1.626.389,3.194.719,4.67.956a28.635,28.635,0,0,0,4.121.4l.246,0Z" transform="translate(391.866 301.547)" fill="#fff"/></g><g transform="translate(24.717 34.148)"><path d="M-12.687-131.166a.923.923,0,0,1-.89-.68c-.865-3.172-.063-11.468-.028-11.82a.922.922,0,0,1,1.009-.828.923.923,0,0,1,.828,1.009c-.226,2.3-.672,8.792-.028,11.154a.923.923,0,0,1-.647,1.133.927.927,0,0,1-.243.033" transform="translate(13.977 144.499)" fill="#fff"/></g><g transform="translate(24.025 33.456)"><path d="M-19.5-137.974v-.692a.232.232,0,0,1-.139-.047.227.227,0,0,1-.083-.123,7.565,7.565,0,0,1-.173-.855c-.073-.487-.124-1.052-.157-1.659s-.046-1.258-.046-1.921c0-1.658.086-3.389.176-4.73s.182-2.3.193-2.4a.227.227,0,0,1,.075-.149.226.226,0,0,1,.153-.059h.025a.227.227,0,0,1,.149.075.229.229,0,0,1,.06.154v.024c-.141,1.439-.365,4.454-.365,7.145,0,.839.022,1.647.076,2.37.027.362.063.7.108,1.019a7.381,7.381,0,0,0,.174.87.23.23,0,0,1,.008.061.231.231,0,0,1-.047.139.226.226,0,0,1-.123.083h0a.228.228,0,0,1-.061.008v1.384a1.622,1.622,0,0,0,.425-.057h0a1.611,1.611,0,0,0,.865-.586,1.615,1.615,0,0,0,.325-.971,1.616,1.616,0,0,0-.057-.425,6.039,6.039,0,0,1-.139-.7c-.06-.413-.1-.907-.131-1.448s-.04-1.131-.04-1.742c0-2.614.221-5.613.359-7.009q.008-.08.008-.159a1.613,1.613,0,0,0-.416-1.08,1.612,1.612,0,0,0-1.041-.526h0C-19.39-152-19.444-152-19.5-152a1.611,1.611,0,0,0-1.08.416,1.613,1.613,0,0,0-.525,1.041c-.012.12-.105,1.086-.2,2.448s-.179,3.117-.179,4.822c0,.909.025,1.8.089,2.622.032.409.074.8.129,1.164a8.88,8.88,0,0,0,.206,1.014,1.612,1.612,0,0,0,.586.865,1.616,1.616,0,0,0,.971.325Z" transform="translate(21.477 151.999)" fill="#fff"/></g><g transform="translate(45.081 34.148)"><path d="M-9.084-131.165a.925.925,0,0,1-.243-.033.923.923,0,0,1-.647-1.133c.644-2.362.2-8.852-.028-11.154a.923.923,0,0,1,.828-1.008.922.922,0,0,1,1.009.828c.035.352.837,8.648-.028,11.82a.923.923,0,0,1-.89.68" transform="translate(10.008 144.497)" fill="#fff"/></g><g transform="translate(44.389 33.456)"><path d="M-15.893-137.973v-.692a.226.226,0,0,1-.061-.008.227.227,0,0,1-.123-.083.232.232,0,0,1-.047-.139.23.23,0,0,1,.008-.061,7.376,7.376,0,0,0,.174-.87c.069-.473.114-1,.143-1.577s.041-1.183.041-1.813c0-2.691-.224-5.706-.365-7.145v-.024a.229.229,0,0,1,.06-.154.227.227,0,0,1,.149-.075h.024a.228.228,0,0,1,.154.059.226.226,0,0,1,.075.149c.011.109.1,1.063.193,2.4s.176,3.072.176,4.73c0,.883-.025,1.746-.085,2.513-.03.383-.069.743-.118,1.067a7.542,7.542,0,0,1-.173.855.226.226,0,0,1-.083.123.231.231,0,0,1-.139.047v1.384a1.615,1.615,0,0,0,.971-.325,1.611,1.611,0,0,0,.586-.865,8.884,8.884,0,0,0,.206-1.014c.082-.547.136-1.151.17-1.79s.048-1.313.048-1.995c0-1.705-.088-3.461-.179-4.823s-.184-2.328-.2-2.448a1.612,1.612,0,0,0-.525-1.041A1.613,1.613,0,0,0-15.892-152c-.053,0-.106,0-.159.008h0a1.612,1.612,0,0,0-1.041.526,1.613,1.613,0,0,0-.416,1.08c0,.053,0,.106.008.159.137,1.4.359,4.4.359,7.01,0,.815-.022,1.592-.072,2.266-.025.337-.058.648-.1.924a6.017,6.017,0,0,1-.139.7,1.612,1.612,0,0,0-.057.425,1.615,1.615,0,0,0,.325.971,1.611,1.611,0,0,0,.865.586,1.615,1.615,0,0,0,.425.057Z" transform="translate(17.508 151.998)" fill="#fff"/></g></g></svg>